<svg width="23" height="20" viewBox="0 0 23 20" fill="none" xmlns="http://www.w3.org/2000/svg">
<path fill-rule="evenodd" clip-rule="evenodd" d="M11.1678 5.32031L11.2177 6.18537L10.3867 6.07945C7.36212 5.6734 4.71973 4.29637 2.4762 1.98367L1.37936 0.836144L1.09684 1.68355C0.498564 3.57255 0.880795 5.56747 2.1272 6.90919C2.79195 7.65067 2.64238 7.7566 1.49569 7.31524C1.09684 7.17401 0.747845 7.06808 0.714607 7.12104C0.598276 7.24462 0.997126 8.85116 1.31288 9.48671C1.74497 10.3694 2.62576 11.2345 3.58965 11.7464L4.40397 12.1525L3.44009 12.1701C2.50943 12.1701 2.4762 12.1878 2.57591 12.5585C2.90828 13.7061 4.22117 14.9242 5.68362 15.4538L6.71398 15.8246L5.81657 16.3895C4.48707 17.2016 2.9249 17.6606 1.36274 17.6959C0.614894 17.7136 0 17.7842 0 17.8371C0 18.0137 2.02749 19.0023 3.20742 19.3907C6.74722 20.5382 10.9518 20.0439 14.1093 18.0843C16.3529 16.6896 18.5964 13.9179 19.6434 11.2345C20.2084 9.80448 20.7735 7.19166 20.7735 5.93821C20.7735 5.12612 20.8233 5.02019 21.754 4.04921C22.3024 3.48428 22.8176 2.86638 22.9173 2.68984C23.0835 2.35441 23.0669 2.35441 22.2193 2.65453C20.8067 3.18415 20.6073 3.11354 21.3053 2.3191C21.8204 1.75416 22.4353 0.730218 22.4353 0.430096C22.4353 0.377134 22.1861 0.465405 21.9035 0.624293C21.6044 0.800835 20.9396 1.06565 20.4411 1.22454L19.5437 1.52466L18.7294 0.942069C18.2806 0.624293 17.6491 0.271209 17.3168 0.165283C16.4692 -0.0818756 15.1729 -0.0465676 14.4085 0.2359C12.3311 1.03034 11.0182 3.07823 11.1678 5.32031Z" fill="#202020"/>
</svg>
